<?xml version="1.0" encoding="UTF-8"?>
<svg id="Layer_2" data-name="Layer 2" xmlns="http://www.w3.org/2000/svg" viewBox="0 0 2000 1005.66">
  <defs>
    <style>
      .cls-1 {
        fill: #000000;
      }
    </style>
  </defs>
  <g id="BACKMARKET_VERTICAL_LOGOTYPE">
    <g>
      <path class="cls-1" d="M588.35,454.59V0h174.59C842.66,0,898,51.39,898,124.52c0,38.87-19.11,74.45-53.37,93.55,45.46,17.13,71.81,56,71.81,106.73,0,76.42-54.02,129.79-136.38,129.79h-191.72ZM664.11,192.38h90.92c41.51,0,67.86-25.04,67.86-62.59s-26.35-63.25-67.86-63.25h-90.92v125.84ZM664.11,388.05h100.14c46.12,0,76.42-25.69,76.42-65.88s-30.31-65.88-76.42-65.88h-100.14v131.77Z"/>
      <path class="cls-1" d="M948.27,291.2c0-95.53,71.15-169.98,164.71-169.98,46.12,0,84.99,18.45,109.37,50.07v-43.48h69.84v326.78h-69.84v-43.48c-23.72,31.62-63.25,50.07-109.37,50.07-93.55,0-164.71-74.45-164.71-169.98ZM1219.71,291.2c0-58.64-41.51-101.46-98.83-101.46s-99.48,42.82-99.48,101.46,42.17,100.8,99.48,100.8,98.83-42.17,98.83-100.8Z"/>
      <path class="cls-1" d="M1332.25,291.2c0-95.53,74.45-169.98,171.95-169.98,80.38,0,135.06,49.41,155.49,101.46l-68.52,26.35c-13.18-34.26-46.78-59.29-86.97-59.29-57.32,0-98.82,44.14-98.82,101.46s42.17,101.46,98.82,101.46c40.85,0,73.79-24.38,86.97-58.64l68.52,25.69c-20.42,52.71-75.11,101.46-155.49,101.46-97.51,0-171.95-74.45-171.95-169.98Z"/>
      <path class="cls-1" d="M1706.44,454.59V0h73.13v272.76l127.81-144.94h86.31l-135.72,156.14,141.65,170.64h-88.94l-131.11-155.48v155.48h-73.13Z"/>
      <path class="cls-1" d="M.47,999.07v-456.47h91.22l159.46,301.01,158.79-301.01h89.19v456.47h-75v-327.47l-145.27,274.54h-58.11l-145.27-274.54v327.47H.47Z"/>
      <path class="cls-1" d="M539.31,835.68c0-95.53,71.15-169.98,164.71-169.98,46.12,0,84.99,18.45,109.37,50.07v-43.48h69.84v326.78h-69.84v-43.48c-23.72,31.62-63.25,50.07-109.37,50.07-93.55,0-164.71-74.45-164.71-169.98ZM810.75,835.68c0-58.64-41.51-101.46-98.83-101.46s-99.48,42.82-99.48,101.46,42.17,100.8,99.48,100.8,98.83-42.17,98.83-100.8Z"/>
      <path class="cls-1" d="M933.49,999.07v-326.78h69.84v45.46c18.45-28.33,49.41-45.46,95.53-45.46h22.4v73.13h-30.97c-59.3,0-83.67,32.28-83.67,83.01v170.64h-73.13Z"/>
      <path class="cls-1" d="M1162.76,999.07v-454.59h73.13v272.76l127.81-144.94h86.31l-135.72,156.14,141.65,170.64h-88.94l-131.11-155.48v155.48h-73.13Z"/>
      <path class="cls-1" d="M1438.69,835.68c0-95.53,73.13-169.98,166.02-169.98s163.39,71.15,163.39,168c0,7.91,0,16.47-1.32,24.38h-255.63c8.56,53.37,45.46,83.67,96.85,83.67,39.53,0,69.84-19.77,86.97-49.41l60.61,34.26c-32.94,49.41-84.33,79.06-147.58,79.06-96.19,0-169.32-75.11-169.32-169.98ZM1513.14,804.72h181.18c-6.59-44.14-40.85-75.77-90.26-75.77-45.46,0-80.38,28.33-90.92,75.77Z"/>
      <path class="cls-1" d="M1949.93,999.07c-74.45,0-110.03-32.28-110.03-100.14v-159.44h-54.02v-67.2h37.55c9.88,0,16.47-6.59,16.47-18.45v-63.25h73.13v81.7h86.97v67.2h-86.97v152.19c0,25.69,12.52,38.87,42.17,38.87h44.8v68.52h-50.07Z"/>
      <path class="cls-1" d="M459.67,0H39.93C17.88,0,0,17.83,0,39.84v374.92c0,22,17.88,39.84,39.93,39.84h419.74c22.05,0,39.93-17.83,39.93-39.84V39.84c0-22-17.88-39.84-39.93-39.84ZM272.14,365.03h-82.37c-2.63,0-5.14-1.04-7-2.9L50.88,230.24c-1.63-1.63-1.63-4.27,0-5.89L182.77,92.46c1.86-1.86,4.37-2.9,7-2.9h82.37c2.24,0,3.36,2.71,1.78,4.29l-130.49,130.49c-1.63,1.63-1.63,4.27,0,5.89l130.49,130.49c1.58,1.58.46,4.29-1.78,4.29ZM316.17,230.24l130.49,130.49c1.58,1.58.46,4.29-1.78,4.29h-82.37c-2.63,0-5.14-1.04-7-2.9l-131.89-131.89c-1.63-1.63-1.63-4.27,0-5.89l131.89-131.88c1.86-1.86,4.37-2.9,7-2.9h82.37c2.24,0,3.36,2.71,1.78,4.29l-130.49,130.49c-1.63,1.63-1.63,4.27,0,5.89Z"/>
    </g>
  </g>
</svg>